<?xml version="1.0" encoding="utf-8"?>
<!-- Generator: Adobe Illustrator 26.0.1, SVG Export Plug-In . SVG Version: 6.00 Build 0)  -->
<svg version="1.1" id="Layer_1" xmlns="http://www.w3.org/2000/svg" xmlns:xlink="http://www.w3.org/1999/xlink" x="0px" y="0px"
	 viewBox="0 0 1000 1000" style="enable-background:new 0 0 1000 1000;" xml:space="preserve">
<style type="text/css">
	.st0{fill:#5D008F;}
	.st1{fill:none;stroke:#000000;stroke-miterlimit:10;}
	.st2{fill:none;stroke:#FFFFFF;stroke-width:42;stroke-miterlimit:10;}
	.st3{fill:url(#SVGID_1_);}
	.st4{fill:url(#SVGID_00000156547254820483899580000002503580188652974009_);}
	.st5{fill:none;stroke:#000000;stroke-width:2;stroke-miterlimit:10;}
	.st6{fill:url(#SVGID_00000060732030750987534300000014282330096327192484_);}
	.st7{fill:url(#SVGID_00000039836956630248172120000008025097604184359586_);}
	.st8{fill:url(#SVGID_00000163059482400158483300000003576534513719070648_);}
	.st9{fill:#5D0190;}
	.st10{fill:url(#SVGID_00000063632856551377753870000002754299148216901814_);}
	.st11{fill:url(#SVGID_00000150782808316317118940000007448144267469997746_);}
	.st12{fill:url(#SVGID_00000026165304589512168600000002757770983455762049_);}
	.st13{fill:#FFFFFF;}
	.st14{fill:#AEA8AE;}
	.st15{fill:url(#SVGID_00000140704080308626180350000002188269814808467604_);}
	.st16{fill:url(#SVGID_00000040535763462590301000000011179111370613687728_);}
	.st17{fill:url(#SVGID_00000181800823511863042380000016041710277044947889_);}
	.st18{fill:url(#SVGID_00000142174107353336528620000000745605227614559420_);}
	.st19{fill:url(#SVGID_00000125601824556131030140000012335113177362542778_);}
	.st20{fill:url(#SVGID_00000018235710151461100320000000194447072617500557_);}
	.st21{fill:url(#SVGID_00000031201878845163029120000017074846853292983702_);}
	.st22{fill:url(#SVGID_00000153685848797048757060000014280614518809535121_);}
	.st23{fill:url(#SVGID_00000013886721150060201250000016313657282663928238_);}
	.st24{fill:url(#SVGID_00000183968680443811958170000012624163523161651358_);}
	.st25{fill:url(#SVGID_00000049900849511080327540000017894243251346402471_);}
	.st26{fill:url(#SVGID_00000121270116796293512930000004110942105362652079_);}
	.st27{fill:url(#SVGID_00000052071307668553229270000003591301209704747653_);}
	.st28{fill:url(#SVGID_00000015323647990679418560000012960469500443509666_);}
	.st29{fill:url(#SVGID_00000148622164809649240840000000976150309788536989_);}
	.st30{fill:url(#SVGID_00000003790373993715327260000013485032016412408979_);}
	.st31{fill:url(#SVGID_00000173858982234203542730000011065122769555750314_);}
	.st32{fill:none;stroke:#AFAFAF;stroke-miterlimit:10;}
	.st33{fill:url(#SVGID_00000034069547594627035090000015967220829070163357_);}
	.st34{fill:url(#SVGID_00000164489879457289953990000001241804680816369853_);}
	.st35{fill:none;stroke:#606060;stroke-width:2;stroke-miterlimit:10;}
	.st36{fill:#606060;}
	.st37{fill:url(#SVGID_00000161619319277508690770000012628144543912457106_);}
	.st38{fill:url(#SVGID_00000000209198162115003320000009287955909978795441_);}
</style>
<linearGradient id="SVGID_1_" gradientUnits="userSpaceOnUse" x1="101.0926" y1="494.6555" x2="900.9803" y2="494.6555">
	<stop  offset="0" style="stop-color:#AE8625"/>
	<stop  offset="0.3914" style="stop-color:#F7EF8A"/>
	<stop  offset="0.675" style="stop-color:#D2AC47"/>
	<stop  offset="0.8693" style="stop-color:#EDC967"/>
</linearGradient>
<path class="st3" d="M293.85,690.41l-5.9-10.14h-4.62v10.14h-4.67v-27.15h11.68c5.26,0,8.69,3.5,8.69,8.51
	c0,4.84-3.11,7.45-6.3,7.98l6.5,10.67H293.85z M294.25,671.76c0-2.61-1.91-4.32-4.55-4.32h-6.38v8.63h6.38
	C292.34,676.08,294.25,674.37,294.25,671.76z M301.19,680.56c0-5.7,4.07-10.3,9.77-10.3c5.78,0,9.49,4.52,9.49,10.71v1.02h-14.87
	c0.32,2.97,2.51,5.41,6.14,5.41c1.87,0,4.11-0.77,5.46-2.16l1.91,2.81c-1.91,1.87-4.74,2.85-7.81,2.85
	C305.5,690.9,301.19,686.79,301.19,680.56z M310.96,673.76c-3.59,0-5.22,2.81-5.42,5.21h10.84
	C316.3,676.65,314.75,673.76,310.96,673.76z M336.36,690.41v-2.12c-1.44,1.67-3.67,2.61-6.22,2.61c-3.15,0-6.7-2.16-6.7-6.51
	c0-4.52,3.55-6.39,6.7-6.39c2.59,0,4.83,0.86,6.22,2.52v-2.93c0-2.28-1.83-3.66-4.51-3.66c-2.15,0-4.03,0.81-5.7,2.48l-1.71-2.97
	c2.23-2.16,5.02-3.17,8.09-3.17c4.27,0,8.01,1.83,8.01,7.12v13.03H336.36z M336.36,685.93v-2.97c-0.96-1.34-2.75-2.04-4.59-2.04
	c-2.35,0-4.11,1.38-4.11,3.54c0,2.12,1.75,3.5,4.11,3.5C333.6,687.97,335.4,687.28,336.36,685.93z M345.96,690.41v-27.15h4.19v27.15
	H345.96z M365.94,690.41v-27.15h18.22v4.19H370.6v7.04h13.28v4.19H370.6v7.53h13.56v4.19H365.94z M387.15,687.85l1.91-3.09
	c1.36,1.42,4.03,2.77,6.54,2.77s3.79-1.1,3.79-2.65c0-3.87-11.64-1.1-11.64-8.63c0-3.22,2.71-5.98,7.58-5.98
	c3.27,0,5.74,1.18,7.5,2.77l-1.75,3.01c-1.16-1.34-3.31-2.36-5.7-2.36c-2.19,0-3.59,1.02-3.59,2.4c0,3.5,11.64,0.9,11.64,8.71
	c0,3.46-2.83,6.11-8.01,6.11C392.13,690.9,389.14,689.84,387.15,687.85z M408.48,685.85v-11.36h-3.19v-3.75h3.19v-5.37h4.19v5.37
	h3.91v3.75h-3.91v10.3c0,1.34,0.64,2.32,1.83,2.32c0.8,0,1.55-0.33,1.87-0.69l1,3.22c-0.76,0.73-1.99,1.26-3.95,1.26
	C410.19,690.9,408.48,689.11,408.48,685.85z M432.12,690.41v-2.12c-1.44,1.67-3.67,2.61-6.22,2.61c-3.15,0-6.7-2.16-6.7-6.51
	c0-4.52,3.55-6.39,6.7-6.39c2.59,0,4.83,0.86,6.22,2.52v-2.93c0-2.28-1.83-3.66-4.51-3.66c-2.15,0-4.03,0.81-5.7,2.48l-1.71-2.97
	c2.23-2.16,5.02-3.17,8.09-3.17c4.27,0,8.01,1.83,8.01,7.12v13.03H432.12z M432.12,685.93v-2.97c-0.96-1.34-2.75-2.04-4.59-2.04
	c-2.35,0-4.11,1.38-4.11,3.54c0,2.12,1.75,3.5,4.11,3.5C429.37,687.97,431.17,687.28,432.12,685.93z M442.57,685.85v-11.36h-3.19
	v-3.75h3.19v-5.37h4.19v5.37h3.91v3.75h-3.91v10.3c0,1.34,0.64,2.32,1.83,2.32c0.8,0,1.55-0.33,1.87-0.69l1,3.22
	c-0.76,0.73-1.99,1.26-3.95,1.26C444.28,690.9,442.57,689.11,442.57,685.85z M453.25,680.56c0-5.7,4.07-10.3,9.77-10.3
	c5.78,0,9.49,4.52,9.49,10.71v1.02h-14.87c0.32,2.97,2.51,5.41,6.14,5.41c1.87,0,4.11-0.77,5.46-2.16l1.91,2.81
	c-1.91,1.87-4.74,2.85-7.81,2.85C457.56,690.9,453.25,686.79,453.25,680.56z M463.02,673.76c-3.59,0-5.22,2.81-5.42,5.21h10.84
	C468.36,676.65,466.81,673.76,463.02,673.76z M487.02,690.41v-27.15h4.67v27.15H487.02z M510.23,690.41v-12.29
	c0-3.05-1.51-4.07-3.87-4.07c-2.15,0-3.99,1.3-4.94,2.65v13.72h-4.19v-19.66h4.19v2.69c1.28-1.55,3.75-3.17,6.78-3.17
	c4.15,0,6.22,2.28,6.22,6.31v13.84H510.23z M545.39,690.41l-5.9-10.14h-4.62v10.14h-4.67v-27.15h11.68c5.26,0,8.69,3.5,8.69,8.51
	c0,4.84-3.11,7.45-6.3,7.98l6.5,10.67H545.39z M545.79,671.76c0-2.61-1.91-4.32-4.55-4.32h-6.38v8.63h6.38
	C543.88,676.08,545.79,674.37,545.79,671.76z M552.73,680.56c0-5.7,4.07-10.3,9.77-10.3c5.78,0,9.49,4.52,9.49,10.71v1.02h-14.87
	c0.32,2.97,2.51,5.41,6.14,5.41c1.87,0,4.11-0.77,5.46-2.16l1.91,2.81c-1.91,1.87-4.74,2.85-7.81,2.85
	C557.03,690.9,552.73,686.79,552.73,680.56z M562.5,673.76c-3.59,0-5.22,2.81-5.42,5.21h10.84
	C567.84,676.65,566.28,673.76,562.5,673.76z M587.89,690.41v-2.12c-1.44,1.67-3.67,2.61-6.22,2.61c-3.15,0-6.7-2.16-6.7-6.51
	c0-4.52,3.55-6.39,6.7-6.39c2.59,0,4.83,0.86,6.22,2.52v-2.93c0-2.28-1.83-3.66-4.51-3.66c-2.15,0-4.03,0.81-5.7,2.48l-1.71-2.97
	c2.23-2.16,5.02-3.17,8.09-3.17c4.27,0,8.01,1.83,8.01,7.12v13.03H587.89z M587.89,685.93v-2.97c-0.96-1.34-2.75-2.04-4.59-2.04
	c-2.35,0-4.11,1.38-4.11,3.54c0,2.12,1.75,3.5,4.11,3.5C585.14,687.97,586.94,687.28,587.89,685.93z M597.5,690.41v-27.15h4.19
	v27.15H597.5z M615.76,686.58l2.59-3.66c1.83,1.99,4.71,3.75,8.41,3.75c3.83,0,5.34-1.91,5.34-3.71c0-5.7-15.51-2.16-15.51-12.17
	c0-4.48,3.87-7.94,9.69-7.94c4.15,0,7.5,1.34,9.97,3.79l-2.67,3.54c-2.07-2.12-4.9-3.09-7.69-3.09c-2.75,0-4.51,1.34-4.51,3.38
	c0,5.05,15.47,1.91,15.47,12.05c0,4.52-3.11,8.39-10.29,8.39C621.66,690.9,618.12,689.15,615.76,686.58z M639.84,680.56
	c0-5.7,4.07-10.3,9.77-10.3c5.78,0,9.49,4.52,9.49,10.71v1.02h-14.87c0.32,2.97,2.51,5.41,6.14,5.41c1.87,0,4.11-0.77,5.46-2.16
	l1.91,2.81c-1.91,1.87-4.74,2.85-7.81,2.85C644.15,690.9,639.84,686.79,639.84,680.56z M649.61,673.76c-3.59,0-5.22,2.81-5.42,5.21
	h10.84C654.95,676.65,653.4,673.76,649.61,673.76z M676.25,690.41v-12.29c0-3.05-1.51-4.07-3.87-4.07c-2.15,0-3.99,1.3-4.94,2.65
	v13.72h-4.19v-19.66h4.19v2.69c1.28-1.55,3.75-3.17,6.78-3.17c4.15,0,6.22,2.28,6.22,6.31v13.84H676.25z M684.18,687.85l1.91-3.09
	c1.36,1.42,4.03,2.77,6.54,2.77s3.79-1.1,3.79-2.65c0-3.87-11.64-1.1-11.64-8.63c0-3.22,2.71-5.98,7.58-5.98
	c3.27,0,5.74,1.18,7.5,2.77l-1.75,3.01c-1.16-1.34-3.31-2.36-5.7-2.36c-2.19,0-3.59,1.02-3.59,2.4c0,3.5,11.64,0.9,11.64,8.71
	c0,3.46-2.83,6.11-8.01,6.11C689.16,690.9,686.17,689.84,684.18,687.85z M703.48,680.56c0-5.7,4.07-10.3,9.77-10.3
	c5.78,0,9.49,4.52,9.49,10.71v1.02h-14.87c0.32,2.97,2.51,5.41,6.14,5.41c1.87,0,4.11-0.77,5.46-2.16l1.91,2.81
	c-1.91,1.87-4.74,2.85-7.81,2.85C707.78,690.9,703.48,686.79,703.48,680.56z M713.24,673.76c-3.59,0-5.22,2.81-5.42,5.21h10.84
	C718.59,676.65,717.03,673.76,713.24,673.76z M898.65,677.03H734.22v3.36h164.44V677.03z M265.78,677.03H101.35v3.36h164.44V677.03z
	 M165.27,644.1l-48.03-65.7v65.7h-16.15v-92.06h16.56l47.06,63.9v-63.9h16.15v92.06H165.27z M198.25,560.32
	c0-4.97,4.14-8.97,8.97-8.97c4.97,0,8.97,4,8.97,8.97s-4,8.97-8.97,8.97C202.39,569.29,198.25,565.29,198.25,560.32z M200.04,644.1
	v-66.66h14.49v66.66H200.04z M250.83,644.1l-27.19-66.66h15.46l19.46,49.96l19.46-49.96h15.6l-27.19,66.66H250.83z M298.58,610.7
	c0-19.32,14.08-34.92,33.81-34.92c20.01,0,32.85,15.32,32.85,36.3v3.45h-51.48c1.1,10.08,8.69,18.36,21.25,18.36
	c6.49,0,14.22-2.62,18.91-7.32l6.62,9.52c-6.62,6.35-16.42,9.66-27.05,9.66C313.49,645.75,298.58,631.82,298.58,610.7z
	 M332.39,587.65c-12.42,0-18.08,9.52-18.77,17.67h37.54C350.89,597.45,345.51,587.65,332.39,587.65z M373.79,635.4l6.62-10.49
	c4.69,4.83,13.94,9.39,22.63,9.39s13.11-3.73,13.11-8.97c0-13.11-40.3-3.73-40.3-29.26c0-10.9,9.39-20.29,26.22-20.29
	c11.32,0,19.87,4,25.95,9.38l-6.07,10.21c-4-4.55-11.46-8-19.74-8c-7.59,0-12.42,3.45-12.42,8.14c0,11.87,40.3,3.04,40.3,29.54
	c0,11.73-9.8,20.7-27.74,20.7C391.05,645.75,380.7,642.17,373.79,635.4z M489.86,644.1v-41.96c0-10.35-5.38-13.53-13.53-13.53
	c-7.31,0-13.66,4.42-17.11,8.97v46.51h-14.49v-92.06h14.49v34.5c4.42-5.24,13.11-10.76,23.6-10.76c14.35,0,21.53,7.45,21.53,21.12
	v47.2H489.86z M553.06,631.12l8.97-12.42c6.35,6.76,16.29,12.7,29.12,12.7c13.25,0,18.49-6.49,18.49-12.56
	c0-19.32-53.69-7.31-53.69-41.27c0-15.18,13.39-26.91,33.54-26.91c14.35,0,25.95,4.55,34.5,12.83l-9.25,12.01
	c-7.18-7.18-16.98-10.49-26.64-10.49c-9.52,0-15.6,4.55-15.6,11.46c0,17.11,53.55,6.49,53.55,40.85c0,15.32-10.77,28.43-35.61,28.43
	C573.49,645.75,561.21,639.82,553.06,631.12z M681.28,644.1v-7.18c-4.97,5.66-12.7,8.83-21.53,8.83c-10.9,0-23.19-7.31-23.19-22.08
	c0-15.32,12.28-21.67,23.19-21.67c8.97,0,16.7,2.9,21.53,8.56v-9.94c0-7.73-6.35-12.42-15.6-12.42c-7.45,0-13.94,2.76-19.74,8.42
	l-5.93-10.08c7.73-7.31,17.39-10.76,28.02-10.76c14.77,0,27.74,6.21,27.74,24.15v44.17H681.28z M681.28,628.92v-10.08
	c-3.31-4.55-9.52-6.9-15.87-6.9c-8.14,0-14.21,4.69-14.21,12.01c0,7.18,6.07,11.87,14.21,11.87
	C671.75,635.82,677.96,633.47,681.28,628.92z M714.53,644.1v-66.66h14.49v9.8c4.97-6.35,12.97-11.32,21.67-11.32v14.35
	c-1.24-0.28-2.76-0.41-4.55-0.41c-6.07,0-14.21,4.14-17.11,8.83v45.41H714.53z M765.32,628.64v-38.51h-11.04v-12.7h11.04v-18.22
	h14.49v18.22h13.53v12.7h-13.53v34.92c0,4.55,2.21,7.87,6.35,7.87c2.76,0,5.38-1.1,6.49-2.35l3.45,10.9
	c-2.62,2.48-6.9,4.28-13.66,4.28C771.25,645.75,765.32,639.68,765.32,628.64z M851.58,644.1v-41.96c0-10.35-5.38-13.53-13.53-13.53
	c-7.31,0-13.66,4.42-17.11,8.97v46.51h-14.49v-92.06h14.49v34.5c4.42-5.24,13.11-10.76,23.6-10.76c14.35,0,21.53,7.45,21.53,21.12
	v47.2H851.58z M883.04,560.32c0-4.97,4.14-8.97,8.97-8.97c4.97,0,8.97,4,8.97,8.97s-4,8.97-8.97,8.97
	C887.18,569.29,883.04,565.29,883.04,560.32z M884.83,644.1v-66.66h14.49v66.66H884.83z M581.49,329.64h-2.18
	c-40.12,0-80.24,0.02-120.36-0.02c-4.97,0-8.72,2.29-11.59,7.34c-16.18,28.45-32.46,56.83-48.7,85.23
	c-10.67,18.65-21.34,37.3-31.98,55.97c-0.59,1.03-1.17,1.5-2.25,1.5c-10.84-0.06-21.69-0.04-32.53-0.04c-0.59,0-1.17,0-2.08,0
	c0.45-0.86,0.76-1.5,1.11-2.1c13.46-23.45,26.93-46.88,40.38-70.34c17.25-30.1,34.51-60.2,51.69-90.36
	c5.81-10.19,13.91-15.66,23.73-17.61c3.13-0.62,6.36-0.75,9.54-0.75c29.13-0.05,58.26-0.08,87.39,0.01
	c7.95,0.02,16.34,1.28,21.86,8.37C567.91,309.91,576.93,322.39,581.49,329.64z M597.58,356.66c-1.89-3.29-3.91-6.47-5.81-9.75
	c-0.55-0.95-1.14-1.26-2.07-1.26c-40.56,0.03-81.13,0-121.69,0.05c-4.73,0.01-8.66,2.27-11.43,7.19
	c-5.35,9.49-10.77,18.93-16.17,28.38c-16.76,29.35-33.52,58.7-50.28,88.05c-1.9,3.32-3.78,6.66-5.78,10.18
	c0.56,0.05,0.89,0.11,1.22,0.11c11.88,0,23.76,0.02,35.63-0.04c0.59,0,1.4-0.55,1.75-1.14c5-8.62,9.94-17.29,14.89-25.96
	c12.84-22.44,25.68-44.88,38.5-67.33c1.37-2.4,3.08-4.32,5.36-5.11c1.91-0.66,3.95-1.1,5.93-1.1c40.37-0.07,80.73-0.06,121.1-0.08
	c0.65,0,1.31-0.08,2.23-0.13C606.95,372.11,598.27,357.88,597.58,356.66z M624.43,401.13c-1.88-3.3-3.94-6.45-5.8-9.76
	c-0.93-1.67-2.01-2.22-3.66-2.21c-25.53,0.06-51.06,0.04-76.59,0.04c-13.95,0-27.89,0.02-41.84-0.02c-3.93-0.01-6.97,1.73-9.26,5.77
	c-14.15,24.91-28.37,49.76-42.56,74.63c-1.84,3.23-3.68,6.47-5.71,10.04c0.83,0,1.28,0,1.72,0c11.98,0,23.95-0.03,35.93,0.06
	c1.55,0.01,2.47-0.52,3.36-2.09c7.88-13.92,15.93-27.71,23.73-41.7c3.05-5.46,7.08-7.81,12.33-7.8c41,0.02,82.01,0.01,123.01,0
	c0.45,0,0.89-0.05,1.58-0.08C635.7,419.75,625.07,402.26,624.43,401.13z M658.66,457.86c-4.28-7.19-8.65-14.29-12.88-21.51
	c-0.95-1.62-1.95-2.11-3.52-2.1c-28.93,0.05-57.86,0.03-86.8,0.03c-10.4,0-20.8,0.02-31.2-0.02c-1.95-0.01-3.71,0.5-5.2,2.08
	c-1.78,1.88-2.2,4.8-1.05,6.71c2.2,3.65,4.37,7.33,6.52,11.02c4.67,8.01,9.35,16.02,13.97,24.09c0.69,1.2,1.44,1.5,2.56,1.5
	c43.03-0.03,86.06-0.03,129.09-0.03c0.46,0,0.93-0.06,1.63-0.1c-3.9-6.48-7.66-12.72-11.61-19.27
	C660.16,460.24,659.32,458.96,658.66,457.86z"/>
</svg>
