<?xml version="1.0" encoding="utf-8"?>
<!-- Generator: Adobe Illustrator 26.0.1, SVG Export Plug-In . SVG Version: 6.00 Build 0)  -->
<svg version="1.1" id="Layer_1" xmlns="http://www.w3.org/2000/svg" xmlns:xlink="http://www.w3.org/1999/xlink" x="0px" y="0px"
	 viewBox="0 0 1000 1000" style="enable-background:new 0 0 1000 1000;" xml:space="preserve">
<style type="text/css">
	.st0{fill:#5D008F;}
	.st1{fill:none;stroke:#000000;stroke-miterlimit:10;}
	.st2{fill:none;stroke:#FFFFFF;stroke-width:42;stroke-miterlimit:10;}
	.st3{fill:url(#SVGID_1_);}
	.st4{fill:url(#SVGID_00000133523544824647065040000011576529784048523930_);}
	.st5{fill:none;stroke:#000000;stroke-width:2;stroke-miterlimit:10;}
	.st6{fill:url(#SVGID_00000093861964817456476040000004073272814948498325_);}
	.st7{fill:url(#SVGID_00000051351468710657871610000000473694145442714558_);}
	.st8{fill:url(#SVGID_00000105412021270438830450000012425370996635836826_);}
	.st9{fill:#5D0190;}
	.st10{fill:url(#SVGID_00000072247876714168458150000004775223602026786976_);}
	.st11{fill:url(#SVGID_00000011712295673342535620000008810867871466632354_);}
	.st12{fill:url(#SVGID_00000127733876869224968600000001108584201860211885_);}
	.st13{fill:#FFFFFF;}
	.st14{fill:#AEA8AE;}
	.st15{fill:url(#SVGID_00000026850798230431815550000004040793873573525908_);}
	.st16{fill:url(#SVGID_00000013183884935944209690000016150086117726135968_);}
	.st17{fill:url(#SVGID_00000084520800473836550160000011439593818765066151_);}
	.st18{fill:url(#SVGID_00000160163644241166644680000006307045709337623711_);}
	.st19{fill:url(#SVGID_00000035517871120694442510000000471223417969746050_);}
	.st20{fill:url(#SVGID_00000094615295375222061850000003235884506378686905_);}
	.st21{fill:url(#SVGID_00000167357330085545027490000017240940583489546396_);}
	.st22{fill:url(#SVGID_00000044158683539672557570000006783615143151832200_);}
	.st23{fill:url(#SVGID_00000143581159929642701100000007616021505065232522_);}
	.st24{fill:url(#SVGID_00000049932208821223809910000005209359291358638264_);}
	.st25{fill:url(#SVGID_00000163065377137451215110000007196872024380134033_);}
	.st26{fill:url(#SVGID_00000121971783358836540380000016624567707691670954_);}
	.st27{fill:url(#SVGID_00000152249795057689231410000010932523859981168016_);}
	.st28{fill:url(#SVGID_00000003101083917772113850000013755772446295585664_);}
	.st29{fill:url(#SVGID_00000090269158149399897160000003251973897088441787_);}
	.st30{fill:url(#SVGID_00000034771530790504832760000008149213347135800484_);}
	.st31{fill:url(#SVGID_00000016061690537458342340000010845514412700169635_);}
	.st32{fill:none;stroke:#AFAFAF;stroke-miterlimit:10;}
	.st33{fill:url(#SVGID_00000127043243913750750640000015751331247129784193_);}
	.st34{fill:url(#SVGID_00000115489086001421040490000008023119366627402897_);}
	.st35{fill:none;stroke:#606060;stroke-width:2;stroke-miterlimit:10;}
	.st36{fill:#606060;}
	.st37{fill:url(#SVGID_00000124135759379833263490000001702919170779112857_);}
	.st38{fill:url(#SVGID_00000021085265174510212120000014739190821579513232_);}
</style>
<g>
	<g>
		<g>
			<path class="st0" d="M292.82,695.75l-5.9-10.14h-4.62v10.14h-4.67V668.6h11.68c5.26,0,8.69,3.5,8.69,8.51
				c0,4.84-3.11,7.45-6.3,7.98l6.5,10.67H292.82z M293.22,677.11c0-2.61-1.91-4.32-4.55-4.32h-6.38v8.63h6.38
				C291.3,681.42,293.22,679.71,293.22,677.11z"/>
			<path class="st0" d="M300.15,685.9c0-5.7,4.07-10.3,9.77-10.3c5.78,0,9.49,4.52,9.49,10.71v1.02h-14.87
				c0.32,2.97,2.51,5.41,6.14,5.41c1.87,0,4.11-0.77,5.46-2.16l1.91,2.81c-1.91,1.87-4.74,2.85-7.81,2.85
				C304.46,696.24,300.15,692.13,300.15,685.9z M309.92,679.1c-3.59,0-5.22,2.81-5.42,5.21h10.84
				C315.26,681.99,313.71,679.1,309.92,679.1z"/>
			<path class="st0" d="M335.32,695.75v-2.12c-1.44,1.67-3.67,2.61-6.22,2.61c-3.15,0-6.7-2.16-6.7-6.51c0-4.52,3.55-6.39,6.7-6.39
				c2.59,0,4.83,0.86,6.22,2.52v-2.93c0-2.28-1.83-3.66-4.51-3.66c-2.15,0-4.03,0.81-5.7,2.48l-1.71-2.97
				c2.23-2.16,5.02-3.17,8.09-3.17c4.27,0,8.01,1.83,8.01,7.12v13.03H335.32z M335.32,691.28v-2.97c-0.96-1.34-2.75-2.04-4.59-2.04
				c-2.35,0-4.11,1.38-4.11,3.54c0,2.12,1.75,3.5,4.11,3.5C332.57,693.31,334.36,692.62,335.32,691.28z"/>
			<path class="st0" d="M344.93,695.75V668.6h4.19v27.15H344.93z"/>
			<path class="st0" d="M364.9,695.75V668.6h18.22v4.19h-13.56v7.04h13.28v4.19h-13.28v7.53h13.56v4.19H364.9z"/>
			<path class="st0" d="M386.11,693.19l1.91-3.09c1.36,1.42,4.03,2.77,6.54,2.77s3.79-1.1,3.79-2.65c0-3.87-11.64-1.1-11.64-8.63
				c0-3.22,2.71-5.98,7.58-5.98c3.27,0,5.74,1.18,7.5,2.77l-1.75,3.01c-1.16-1.34-3.31-2.36-5.7-2.36c-2.19,0-3.59,1.02-3.59,2.4
				c0,3.5,11.64,0.9,11.64,8.71c0,3.46-2.83,6.11-8.01,6.11C391.1,696.24,388.11,695.18,386.11,693.19z"/>
			<path class="st0" d="M407.44,691.19v-11.36h-3.19v-3.75h3.19v-5.37h4.19v5.37h3.91v3.75h-3.91v10.3c0,1.34,0.64,2.32,1.83,2.32
				c0.8,0,1.55-0.33,1.87-0.69l1,3.22c-0.76,0.73-1.99,1.26-3.95,1.26C409.16,696.24,407.44,694.45,407.44,691.19z"/>
			<path class="st0" d="M431.09,695.75v-2.12c-1.44,1.67-3.67,2.61-6.22,2.61c-3.15,0-6.7-2.16-6.7-6.51c0-4.52,3.55-6.39,6.7-6.39
				c2.59,0,4.83,0.86,6.22,2.52v-2.93c0-2.28-1.83-3.66-4.51-3.66c-2.15,0-4.03,0.81-5.7,2.48l-1.71-2.97
				c2.23-2.16,5.02-3.17,8.09-3.17c4.27,0,8.01,1.83,8.01,7.12v13.03H431.09z M431.09,691.28v-2.97c-0.96-1.34-2.75-2.04-4.59-2.04
				c-2.35,0-4.11,1.38-4.11,3.54c0,2.12,1.75,3.5,4.11,3.5C428.33,693.31,430.13,692.62,431.09,691.28z"/>
			<path class="st0" d="M441.53,691.19v-11.36h-3.19v-3.75h3.19v-5.37h4.19v5.37h3.91v3.75h-3.91v10.3c0,1.34,0.64,2.32,1.83,2.32
				c0.8,0,1.55-0.33,1.87-0.69l1,3.22c-0.76,0.73-1.99,1.26-3.95,1.26C443.25,696.24,441.53,694.45,441.53,691.19z"/>
			<path class="st0" d="M452.22,685.9c0-5.7,4.07-10.3,9.77-10.3c5.78,0,9.49,4.52,9.49,10.71v1.02H456.6
				c0.32,2.97,2.51,5.41,6.14,5.41c1.87,0,4.11-0.77,5.46-2.16l1.91,2.81c-1.91,1.87-4.74,2.85-7.81,2.85
				C456.52,696.24,452.22,692.13,452.22,685.9z M461.98,679.1c-3.59,0-5.22,2.81-5.42,5.21h10.84
				C467.33,681.99,465.77,679.1,461.98,679.1z"/>
			<path class="st0" d="M485.99,695.75V668.6h4.67v27.15H485.99z"/>
			<path class="st0" d="M509.19,695.75v-12.29c0-3.05-1.51-4.07-3.87-4.07c-2.15,0-3.99,1.3-4.94,2.65v13.72h-4.19v-19.66h4.19v2.69
				c1.28-1.55,3.75-3.17,6.78-3.17c4.15,0,6.22,2.28,6.22,6.31v13.84H509.19z"/>
			<path class="st0" d="M544.36,695.75l-5.9-10.14h-4.62v10.14h-4.67V668.6h11.68c5.26,0,8.69,3.5,8.69,8.51
				c0,4.84-3.11,7.45-6.3,7.98l6.5,10.67H544.36z M544.76,677.11c0-2.61-1.91-4.32-4.55-4.32h-6.38v8.63h6.38
				C542.84,681.42,544.76,679.71,544.76,677.11z"/>
			<path class="st0" d="M551.69,685.9c0-5.7,4.07-10.3,9.77-10.3c5.78,0,9.49,4.52,9.49,10.71v1.02h-14.87
				c0.32,2.97,2.51,5.41,6.14,5.41c1.87,0,4.11-0.77,5.46-2.16l1.91,2.81c-1.91,1.87-4.74,2.85-7.81,2.85
				C556,696.24,551.69,692.13,551.69,685.9z M561.46,679.1c-3.59,0-5.22,2.81-5.42,5.21h10.84
				C566.8,681.99,565.25,679.1,561.46,679.1z"/>
			<path class="st0" d="M586.86,695.75v-2.12c-1.44,1.67-3.67,2.61-6.22,2.61c-3.15,0-6.7-2.16-6.7-6.51c0-4.52,3.55-6.39,6.7-6.39
				c2.59,0,4.83,0.86,6.22,2.52v-2.93c0-2.28-1.83-3.66-4.51-3.66c-2.15,0-4.03,0.81-5.7,2.48l-1.71-2.97
				c2.23-2.16,5.02-3.17,8.09-3.17c4.27,0,8.01,1.83,8.01,7.12v13.03H586.86z M586.86,691.28v-2.97c-0.96-1.34-2.75-2.04-4.59-2.04
				c-2.35,0-4.11,1.38-4.11,3.54c0,2.12,1.75,3.5,4.11,3.5C584.11,693.31,585.9,692.62,586.86,691.28z"/>
			<path class="st0" d="M596.47,695.75V668.6h4.19v27.15H596.47z"/>
			<path class="st0" d="M614.73,691.93l2.59-3.66c1.83,1.99,4.71,3.75,8.41,3.75c3.83,0,5.34-1.91,5.34-3.71
				c0-5.7-15.51-2.16-15.51-12.17c0-4.48,3.87-7.94,9.69-7.94c4.15,0,7.5,1.34,9.97,3.79l-2.67,3.54c-2.07-2.12-4.9-3.09-7.69-3.09
				c-2.75,0-4.51,1.34-4.51,3.38c0,5.05,15.47,1.91,15.47,12.05c0,4.52-3.11,8.39-10.29,8.39
				C620.63,696.24,617.08,694.49,614.73,691.93z"/>
			<path class="st0" d="M638.81,685.9c0-5.7,4.07-10.3,9.77-10.3c5.78,0,9.49,4.52,9.49,10.71v1.02h-14.87
				c0.32,2.97,2.51,5.41,6.14,5.41c1.87,0,4.11-0.77,5.46-2.16l1.91,2.81c-1.91,1.87-4.74,2.85-7.81,2.85
				C643.11,696.24,638.81,692.13,638.81,685.9z M648.58,679.1c-3.59,0-5.22,2.81-5.42,5.21H654
				C653.92,681.99,652.36,679.1,648.58,679.1z"/>
			<path class="st0" d="M675.21,695.75v-12.29c0-3.05-1.51-4.07-3.87-4.07c-2.15,0-3.99,1.3-4.94,2.65v13.72h-4.19v-19.66h4.19v2.69
				c1.28-1.55,3.75-3.17,6.78-3.17c4.15,0,6.22,2.28,6.22,6.31v13.84H675.21z"/>
			<path class="st0" d="M683.14,693.19l1.91-3.09c1.36,1.42,4.03,2.77,6.54,2.77s3.79-1.1,3.79-2.65c0-3.87-11.64-1.1-11.64-8.63
				c0-3.22,2.71-5.98,7.58-5.98c3.27,0,5.74,1.18,7.5,2.77l-1.75,3.01c-1.16-1.34-3.31-2.36-5.7-2.36c-2.19,0-3.59,1.02-3.59,2.4
				c0,3.5,11.64,0.9,11.64,8.71c0,3.46-2.83,6.11-8.01,6.11C688.13,696.24,685.14,695.18,683.14,693.19z"/>
			<path class="st0" d="M702.44,685.9c0-5.7,4.07-10.3,9.77-10.3c5.78,0,9.49,4.52,9.49,10.71v1.02h-14.87
				c0.32,2.97,2.51,5.41,6.14,5.41c1.87,0,4.11-0.77,5.46-2.16l1.91,2.81c-1.91,1.87-4.74,2.85-7.81,2.85
				C706.75,696.24,702.44,692.13,702.44,685.9z M712.21,679.1c-3.59,0-5.22,2.81-5.42,5.21h10.84
				C717.55,681.99,716,679.1,712.21,679.1z"/>
		</g>
		<g>
			<g>
				<rect x="733.18" y="682.37" class="st0" width="164.44" height="3.36"/>
			</g>
		</g>
		<g>
			<g>
				<rect x="100.31" y="682.37" class="st0" width="164.44" height="3.36"/>
			</g>
		</g>
	</g>
	<g>
		<path class="st0" d="M164.23,649.44l-48.03-65.7v65.7h-16.15v-92.06h16.56l47.06,63.9v-63.9h16.15v92.06H164.23z"/>
		<path class="st0" d="M197.21,565.67c0-4.97,4.14-8.97,8.97-8.97c4.97,0,8.97,4,8.97,8.97s-4,8.97-8.97,8.97
			C201.35,574.64,197.21,570.64,197.21,565.67z M199.01,649.44v-66.66h14.49v66.66H199.01z"/>
		<path class="st0" d="M249.8,649.44l-27.19-66.66h15.46l19.46,49.96l19.46-49.96h15.6l-27.19,66.66H249.8z"/>
		<path class="st0" d="M297.54,616.04c0-19.32,14.08-34.92,33.81-34.92c20.01,0,32.85,15.32,32.85,36.3v3.45h-51.48
			c1.1,10.08,8.69,18.36,21.25,18.36c6.49,0,14.22-2.62,18.91-7.32l6.62,9.52c-6.62,6.35-16.42,9.66-27.05,9.66
			C312.45,651.1,297.54,637.16,297.54,616.04z M331.36,592.99c-12.42,0-18.08,9.52-18.77,17.67h37.54
			C349.85,602.79,344.47,592.99,331.36,592.99z"/>
		<path class="st0" d="M372.76,640.75l6.62-10.49c4.69,4.83,13.94,9.39,22.63,9.39s13.11-3.73,13.11-8.97
			c0-13.11-40.3-3.73-40.3-29.26c0-10.9,9.39-20.29,26.22-20.29c11.32,0,19.87,4,25.95,9.38l-6.07,10.21c-4-4.55-11.46-8-19.74-8
			c-7.59,0-12.42,3.45-12.42,8.14c0,11.87,40.3,3.04,40.3,29.54c0,11.73-9.8,20.7-27.74,20.7
			C390.01,651.1,379.66,647.51,372.76,640.75z"/>
		<path class="st0" d="M488.82,649.44v-41.96c0-10.35-5.38-13.53-13.53-13.53c-7.31,0-13.66,4.42-17.11,8.97v46.51h-14.49v-92.06
			h14.49v34.5c4.42-5.24,13.11-10.76,23.6-10.76c14.35,0,21.53,7.45,21.53,21.12v47.2H488.82z"/>
		<path class="st0" d="M552.03,636.47l8.97-12.42c6.35,6.76,16.29,12.7,29.12,12.7c13.25,0,18.49-6.49,18.49-12.56
			c0-19.32-53.69-7.31-53.69-41.27c0-15.18,13.39-26.91,33.54-26.91c14.35,0,25.95,4.55,34.5,12.83l-9.25,12.01
			c-7.18-7.18-16.98-10.49-26.64-10.49c-9.52,0-15.6,4.55-15.6,11.46c0,17.11,53.55,6.49,53.55,40.85
			c0,15.32-10.77,28.43-35.61,28.43C572.45,651.1,560.17,645.16,552.03,636.47z"/>
		<path class="st0" d="M680.24,649.44v-7.18c-4.97,5.66-12.7,8.83-21.53,8.83c-10.9,0-23.19-7.31-23.19-22.08
			c0-15.32,12.28-21.67,23.19-21.67c8.97,0,16.7,2.9,21.53,8.56v-9.94c0-7.73-6.35-12.42-15.6-12.42c-7.45,0-13.94,2.76-19.74,8.42
			l-5.93-10.08c7.73-7.31,17.39-10.76,28.02-10.76c14.77,0,27.74,6.21,27.74,24.15v44.17H680.24z M680.24,634.26v-10.08
			c-3.31-4.55-9.52-6.9-15.87-6.9c-8.14,0-14.21,4.69-14.21,12.01c0,7.18,6.07,11.87,14.21,11.87
			C670.72,641.16,676.93,638.82,680.24,634.26z"/>
		<path class="st0" d="M713.5,649.44v-66.66h14.49v9.8c4.97-6.35,12.97-11.32,21.67-11.32v14.35c-1.24-0.28-2.76-0.41-4.55-0.41
			c-6.07,0-14.21,4.14-17.11,8.83v45.41H713.5z"/>
		<path class="st0" d="M764.28,633.98v-38.51h-11.04v-12.7h11.04v-18.22h14.49v18.22h13.53v12.7h-13.53v34.92
			c0,4.55,2.21,7.87,6.35,7.87c2.76,0,5.38-1.1,6.49-2.35l3.45,10.9c-2.62,2.48-6.9,4.28-13.66,4.28
			C770.22,651.1,764.28,645.03,764.28,633.98z"/>
		<path class="st0" d="M850.54,649.44v-41.96c0-10.35-5.38-13.53-13.53-13.53c-7.31,0-13.66,4.42-17.11,8.97v46.51h-14.49v-92.06
			h14.49v34.5c4.42-5.24,13.11-10.76,23.6-10.76c14.35,0,21.53,7.45,21.53,21.12v47.2H850.54z"/>
		<path class="st0" d="M882,565.67c0-4.97,4.14-8.97,8.97-8.97c4.97,0,8.97,4,8.97,8.97s-4,8.97-8.97,8.97
			C886.14,574.64,882,570.64,882,565.67z M883.8,649.44v-66.66h14.49v66.66H883.8z"/>
	</g>
	<linearGradient id="SVGID_1_" gradientUnits="userSpaceOnUse" x1="328.7905" y1="394.388" x2="670.736" y2="394.388">
		<stop  offset="0" style="stop-color:#AE8625"/>
		<stop  offset="0.3914" style="stop-color:#F7EF8A"/>
		<stop  offset="0.675" style="stop-color:#D2AC47"/>
		<stop  offset="0.8693" style="stop-color:#EDC967"/>
	</linearGradient>
	<path class="st3" d="M580.45,334.99h-2.18c-40.12,0-80.24,0.02-120.36-0.02c-4.97,0-8.72,2.29-11.59,7.34
		c-16.18,28.45-32.46,56.83-48.7,85.23c-10.67,18.65-21.34,37.3-31.98,55.97c-0.59,1.03-1.17,1.5-2.25,1.5
		c-10.84-0.06-21.69-0.04-32.53-0.04c-0.59,0-1.17,0-2.08,0c0.45-0.86,0.76-1.5,1.11-2.1c13.46-23.45,26.93-46.88,40.38-70.34
		c17.25-30.1,34.51-60.2,51.69-90.36c5.81-10.19,13.91-15.66,23.73-17.61c3.13-0.62,6.36-0.75,9.54-0.75
		c29.13-0.05,58.26-0.08,87.39,0.01c7.95,0.02,16.34,1.28,21.86,8.37C566.87,315.25,575.89,327.74,580.45,334.99z M596.54,362
		c-1.89-3.29-3.91-6.47-5.81-9.75c-0.55-0.95-1.14-1.26-2.07-1.26c-40.56,0.03-81.13,0-121.69,0.05c-4.73,0.01-8.66,2.27-11.43,7.19
		c-5.35,9.49-10.77,18.93-16.17,28.38c-16.76,29.35-33.52,58.7-50.28,88.05c-1.9,3.32-3.78,6.66-5.78,10.18
		c0.56,0.05,0.89,0.11,1.22,0.11c11.88,0,23.76,0.02,35.63-0.04c0.59,0,1.4-0.55,1.75-1.14c5-8.62,9.94-17.29,14.89-25.96
		c12.84-22.44,25.68-44.88,38.5-67.33c1.37-2.4,3.08-4.32,5.36-5.11c1.91-0.66,3.95-1.1,5.93-1.1c40.37-0.07,80.73-0.06,121.1-0.08
		c0.65,0,1.31-0.08,2.23-0.13C605.92,377.45,597.24,363.22,596.54,362z M623.39,406.48c-1.88-3.3-3.94-6.45-5.8-9.76
		c-0.93-1.67-2.01-2.22-3.66-2.21c-25.53,0.06-51.06,0.04-76.59,0.04c-13.95,0-27.89,0.02-41.84-0.02
		c-3.93-0.01-6.97,1.73-9.26,5.77c-14.15,24.91-28.37,49.76-42.56,74.63c-1.84,3.23-3.68,6.47-5.7,10.04c0.83,0,1.28,0,1.72,0
		c11.98,0,23.95-0.03,35.93,0.06c1.55,0.01,2.47-0.52,3.36-2.09c7.88-13.92,15.93-27.71,23.73-41.7c3.05-5.46,7.08-7.81,12.33-7.8
		c41,0.02,82.01,0.01,123.01,0c0.45,0,0.89-0.05,1.58-0.08C634.66,425.09,624.04,407.61,623.39,406.48z M657.63,463.21
		c-4.28-7.19-8.65-14.29-12.88-21.51c-0.95-1.62-1.95-2.11-3.52-2.1c-28.93,0.05-57.86,0.03-86.8,0.03c-10.4,0-20.8,0.02-31.2-0.02
		c-1.95-0.01-3.71,0.5-5.2,2.08c-1.78,1.88-2.2,4.8-1.05,6.71c2.2,3.65,4.37,7.33,6.52,11.02c4.67,8.01,9.35,16.02,13.97,24.09
		c0.69,1.2,1.44,1.5,2.56,1.5c43.03-0.03,86.06-0.03,129.09-0.03c0.46,0,0.93-0.06,1.63-0.1c-3.9-6.48-7.66-12.72-11.61-19.27
		C659.13,465.59,658.28,464.31,657.63,463.21z"/>
</g>
</svg>
